M48
; DRILL file {KiCad (6.0.1)} date Tue Feb 14 20:17:15 2023
; FORMAT={-:-/ absolute / inch / decimal}
; #@! TF.CreationDate,2023-02-14T20:17:15+00:00
; #@! TF.GenerationSoftware,Kicad,Pcbnew,(6.0.1)
; #@! TF.FileFunction,Plated,1,2,PTH
FMAT,2
INCH
; #@! TA.AperFunction,Plated,PTH,ComponentDrill
T1C0.0079
; #@! TA.AperFunction,Plated,PTH,ViaDrill
T2C0.0157
; #@! TA.AperFunction,Plated,PTH,ComponentDrill
T3C0.0394
; #@! TA.AperFunction,Plated,PTH,ComponentDrill
T4C0.0402
; #@! TA.AperFunction,Plated,PTH,ComponentDrill
T5C0.0469
%
G90
G05
T1
X5.9232Y-5.4016
X5.9232Y-5.4528
X5.9744Y-5.4016
X5.9744Y-5.4528
X6.0118Y-4.6102
X6.0118Y-4.6614
X6.0256Y-5.4016
X6.0256Y-5.4528
X6.063Y-4.6102
X6.063Y-4.6614
X6.1142Y-4.6102
X6.1142Y-4.6614
T2
X4.4291Y-2.9528
X4.4291Y-3.3465
X4.4291Y-3.8386
X4.4291Y-4.3307
X4.4291Y-4.7244
X4.4291Y-5.2165
X4.9213Y-5.7087
X5.1969Y-3.1693
X5.315Y-4.5276
X5.315Y-5.2165
X5.315Y-5.7087
X5.4035Y-3.1693
X5.4528Y-2.3327
X5.4557Y-4.8809
X5.5524Y-2.5382
X5.6102Y-2.3327
X5.6102Y-2.9528
X5.6102Y-3.248
X5.6102Y-3.7402
X5.6102Y-4.1339
X5.6102Y-5.7087
X5.6683Y-4.9675
X5.7087Y-5.2165
X5.7776Y-5.6398
X5.8189Y-4.9843
X5.8199Y-5.0797
X5.9776Y-4.4239
X6.061Y-5.6398
X6.1417Y-5.3937
X6.2008Y-2.9528
X6.2008Y-3.248
X6.2008Y-3.7402
X6.2008Y-4.1339
X6.2142Y-5.3937
X6.2611Y-4.4239
X6.2667Y-5.0797
X6.2677Y-4.9843
X6.378Y-3.1693
X6.3976Y-2.3622
X6.3976Y-2.6575
X6.4961Y-5.0197
X6.5777Y-4.4774
X6.5782Y-4.1934
X6.5861Y-4.7682
X6.6929Y-3.7402
X6.7323Y-5.252
X6.7323Y-5.3583
X6.7913Y-2.9528
X6.7913Y-5.0197
X6.811Y-3.1417
X6.8395Y-5.7382
X6.8504Y-4.126
X6.8504Y-4.4114
X6.8504Y-4.6969
X6.9193Y-5.5906
X6.939Y-3.565
X6.9882Y-5.0197
X7.0079Y-3.2992
X7.0453Y-3.7283
X7.0551Y-2.6693
X7.0551Y-2.8504
X7.0866Y-2.2638
X7.185Y-5.4134
X7.185Y-5.7087
X7.189Y-3.3622
X7.1978Y-3.2963
X7.2835Y-2.2638
X7.2835Y-2.7559
X7.315Y-3.4252
X7.4091Y-2.6059
X7.4094Y-2.9012
X7.4094Y-3.098
X7.4331Y-4.063
X7.4331Y-4.3386
X7.4331Y-4.7638
X7.5787Y-5.7087
T3
X5.4524Y-2.1413
X5.4524Y-2.7413
X5.5524Y-2.1413
X5.5524Y-2.7413
X5.6339Y-1.6811
X5.6339Y-1.7811
X5.6339Y-1.8811
X5.6339Y-1.9811
X5.6524Y-2.1413
X5.6524Y-2.7413
X5.7339Y-1.6811
X5.7339Y-1.7811
X5.7339Y-1.8811
X5.7339Y-1.9811
X5.7524Y-2.1413
X5.7524Y-2.7413
X5.8524Y-2.1413
X5.8524Y-2.7413
X5.9524Y-2.1413
X5.9524Y-2.7413
X6.0524Y-2.1413
X6.0524Y-2.7413
X6.1524Y-2.1413
X6.1524Y-2.7413
X6.2524Y-2.1413
X6.2524Y-2.7413
X6.3524Y-2.1413
X6.3524Y-2.7413
X6.4524Y-2.1413
X6.4524Y-2.7413
X6.5524Y-2.1413
X6.5524Y-2.7413
X6.6524Y-2.1413
X6.6524Y-2.7413
X6.7524Y-2.1413
X6.7524Y-2.7413
X6.8524Y-2.1413
X6.8524Y-2.7413
T4
X7.2014Y-4.9902
X7.3195Y-4.065
X7.3195Y-4.1831
X7.3195Y-4.3012
X7.3195Y-4.4193
X7.3195Y-4.5374
X7.3195Y-4.9902
T5
X7.5557Y-2.0457
X7.5557Y-2.1457
X7.5557Y-2.2457
X7.5557Y-2.4528
X7.5557Y-2.5528
X7.5557Y-2.6528
X7.5557Y-2.7528
X7.5557Y-2.8528
X7.5557Y-2.9528
X7.5557Y-3.0528
X7.5557Y-3.1528
X7.5557Y-3.3449
X7.5557Y-3.4449
X7.5557Y-3.5449
T0
M30
