<?xml version="1.0" encoding="utf-8"?>
<!-- Generator: Adobe Illustrator 16.0.0, SVG Export Plug-In . SVG Version: 6.00 Build 0)  -->
<!DOCTYPE svg PUBLIC "-//W3C//DTD SVG 1.1//EN" "http://www.w3.org/Graphics/SVG/1.1/DTD/svg11.dtd">
<svg version="1.1" id="Layer_1" xmlns="http://www.w3.org/2000/svg" xmlns:xlink="http://www.w3.org/1999/xlink" x="0px" y="0px"
	 width="538.583px" height="212.6px" viewBox="0 0 538.583 212.6" enable-background="new 0 0 538.583 212.6" xml:space="preserve">
<path d="M267.648,133.454v-5.063c-1.336,1.758-3.164,3.234-5.414,4.359s-4.5,1.688-6.75,1.688c-4.992,0-9-1.688-12.164-5.063
	c-3.164-3.375-4.711-7.595-4.711-12.586c0-4.781,1.617-8.859,4.852-12.234s7.242-5.063,12.023-5.063c2.25,0,4.43,0.563,6.609,1.688
	c2.179,1.125,4.008,2.672,5.484,4.641V82.337h6.046v51.188h-6.046v-0.069L267.648,133.454L267.648,133.454z M256.257,129.095
	c3.094,0,5.766-1.195,8.016-3.516c2.25-2.321,3.375-5.273,3.375-8.72c0-3.375-1.125-6.258-3.375-8.577
	c-2.25-2.32-4.922-3.517-8.016-3.517c-3.305,0-6.047,1.125-8.156,3.375c-2.18,2.25-3.234,5.133-3.234,8.719s1.055,6.47,3.094,8.72
	s4.852,3.375,8.297,3.375L256.257,129.095L256.257,129.095z M298.445,99.423c4.853,0,9,1.688,12.445,5.133
	c3.375,3.445,5.063,7.523,5.063,12.375c0,4.853-1.688,9-5.134,12.445c-3.444,3.444-7.594,5.203-12.444,5.203
	c-4.852,0-9-1.759-12.445-5.203c-3.445-3.445-5.203-7.594-5.203-12.445c0-4.851,1.758-8.93,5.203-12.375s7.594-5.133,12.445-5.133
	H298.445z M290.851,84.517c1.125,0,2.108,0.422,2.883,1.267c0.774,0.844,1.195,1.827,1.195,2.952s-0.423,2.109-1.195,2.884
	c-0.772,0.773-1.758,1.194-2.883,1.194s-2.108-0.422-2.953-1.194c-0.844-0.773-1.267-1.759-1.267-2.884s0.423-2.108,1.267-2.952
	C288.743,84.939,289.726,84.517,290.851,84.517v-0.07V84.517z M298.445,129.095c3.306,0,5.978-1.195,8.156-3.516
	c2.179-2.321,3.233-5.203,3.233-8.578s-1.055-6.188-3.233-8.508c-2.179-2.32-4.853-3.517-8.156-3.517
	c-3.233,0-5.905,1.195-8.086,3.517c-2.18,2.32-3.305,5.202-3.305,8.577s1.055,6.259,3.233,8.578c2.18,2.32,4.853,3.517,8.156,3.517
	L298.445,129.095L298.445,129.095z M306.179,84.517c1.125,0,2.108,0.422,2.883,1.267c0.774,0.844,1.194,1.827,1.194,2.952
	s-0.422,2.109-1.194,2.884c-0.772,0.773-1.758,1.194-2.883,1.194s-2.109-0.422-2.884-1.194c-0.844-0.773-1.266-1.759-1.266-2.884
	s0.422-2.108,1.266-2.952c0.845-0.845,1.828-1.267,2.953-1.267H306.179z M349.842,133.454v-5.063
	c-1.336,1.758-3.163,3.234-5.413,4.359s-4.5,1.688-6.75,1.688c-4.992,0-9-1.688-12.164-5.063s-4.711-7.595-4.711-12.586
	c0-4.781,1.616-8.859,4.852-12.234s7.242-5.063,12.023-5.063c2.25,0,4.43,0.563,6.608,1.688c2.18,1.125,4.008,2.672,5.484,4.641
	V82.337h6.047v51.188h-6.047v-0.069L349.842,133.454L349.842,133.454z M338.454,129.095c3.094,0,5.766-1.195,8.016-3.516
	c2.25-2.321,3.375-5.273,3.375-8.72c0-3.375-1.125-6.258-3.375-8.577c-2.25-2.32-4.922-3.517-8.016-3.517
	c-3.306,0-6.047,1.125-8.156,3.375c-2.18,2.25-3.234,5.133-3.234,8.719s1.055,6.47,3.094,8.72s4.852,3.375,8.297,3.375V129.095
	L338.454,129.095z M374.592,134.579c-4.641,0-8.858-1.406-12.655-4.22l3.306-4.641c3.022,2.32,6.116,3.516,9.352,3.516
	c1.898,0,3.375-0.352,4.289-1.125c0.914-0.772,1.406-1.897,1.406-3.375c0-0.983-0.353-1.827-1.125-2.602
	c-0.773-0.774-2.32-1.617-4.642-2.531c-4.992-2.039-8.155-3.867-9.492-5.483c-1.336-1.617-1.969-3.445-1.969-5.484
	c0-2.602,1.056-4.781,3.233-6.469c2.18-1.688,4.992-2.531,8.578-2.531c3.517,0,7.103,0.914,10.758,2.813l-2.461,5.133
	c-2.883-1.758-5.694-2.672-8.438-2.672c-1.758,0-3.164,0.352-4.078,0.983s-1.406,1.547-1.406,2.672c0,0.984,0.492,1.828,1.406,2.603
	c0.914,0.773,2.883,1.688,5.766,2.883c4.359,1.758,7.172,3.445,8.367,5.063c1.195,1.618,1.828,3.445,1.828,5.484
	c0,3.023-1.125,5.414-3.305,7.313c-2.18,1.898-5.133,2.813-8.789,2.813v-0.07L374.592,134.579z M409.82,87.329
	c-1.336-0.492-2.813-0.773-4.5-0.773c-1.478,0-2.53,0.422-3.163,1.336c-0.634,0.844-0.914,2.32-0.914,4.5v8.017h6.891v5.202h-6.891
	v27.703h-6.048v-27.703h-5.063v-5.202h5.063v-8.156c0-3.586,0.772-6.398,2.392-8.367c1.617-1.969,3.938-2.953,7.031-2.953
	c1.897,0,3.655,0.142,5.133,0.492v5.695v-0.07L409.82,87.329z M439.631,133.454v-5.063c-1.477,1.898-3.232,3.375-5.414,4.5
	c-2.18,1.125-4.357,1.688-6.607,1.688c-4.992,0-9.001-1.688-12.165-5.063s-4.711-7.594-4.711-12.586
	c0-4.781,1.617-8.859,4.853-12.234c3.234-3.375,7.242-5.063,12.023-5.063c2.25,0,4.43,0.563,6.607,1.688
	c2.18,1.125,4.008,2.673,5.484,4.642v-5.203h6.047v32.906h-6.047L439.631,133.454z M428.381,129.095
	c3.094,0,5.768-1.195,8.018-3.516c2.18-2.32,3.305-5.273,3.305-8.72c0-3.375-1.125-6.258-3.375-8.577
	c-2.25-2.32-4.922-3.517-8.018-3.517c-3.305,0-6.047,1.125-8.085,3.375c-2.108,2.25-3.164,5.133-3.164,8.719s1.056,6.47,3.094,8.72
	c2.04,2.25,4.853,3.375,8.298,3.375L428.381,129.095z M421.915,84.517c1.125,0,2.109,0.422,2.883,1.267
	c0.773,0.844,1.195,1.827,1.195,2.952s-0.422,2.109-1.195,2.884c-0.773,0.773-1.758,1.194-2.883,1.194s-2.109-0.422-2.953-1.194
	c-0.844-0.773-1.267-1.759-1.267-2.884s0.423-2.108,1.267-2.952C419.805,84.939,420.79,84.517,421.915,84.517v-0.07V84.517z
	 M437.243,84.517c1.125,0,2.107,0.422,2.883,1.267c0.773,0.844,1.195,1.827,1.195,2.952s-0.422,2.109-1.195,2.884
	c-0.773,0.773-1.758,1.194-2.883,1.194s-2.109-0.422-2.883-1.194c-0.846-0.773-1.268-1.759-1.268-2.884s0.422-2.108,1.268-2.952
	c0.844-0.845,1.826-1.267,2.951-1.267H437.243z M461.36,133.454h-6.049V82.267h6.049V133.454v-0.07V133.454z M477.04,133.454h-6.047
	V82.267h6.047V133.454v-0.07V133.454z M513.11,133.454v-5.063c-1.479,1.898-3.234,3.375-5.414,4.5
	c-2.182,1.125-4.359,1.688-6.609,1.688c-4.992,0-9-1.688-12.164-5.063s-4.711-7.594-4.711-12.586c0-4.781,1.617-8.859,4.852-12.234
	s7.242-5.063,12.023-5.063c2.25,0,4.43,0.563,6.609,1.688c2.178,1.125,4.008,2.673,5.482,4.642v-5.203h6.047v32.906h-6.047v-0.07
	L513.11,133.454z M501.86,129.095c3.094,0,5.766-1.195,8.016-3.516c2.18-2.32,3.305-5.273,3.305-8.72
	c0-3.375-1.125-6.258-3.375-8.577c-2.25-2.32-4.922-3.517-8.016-3.517c-3.305,0-6.047,1.125-8.086,3.375
	c-2.109,2.25-3.164,5.133-3.164,8.719s1.055,6.47,3.094,8.72s4.852,3.375,8.297,3.375L501.86,129.095z M146.608,116.621
	c-0.258-0.773-0.387-1.57-0.387-2.392c0-1.617,0.469-3.094,1.406-4.43l4.781-6.715c-0.773-1.195-1.16-2.543-1.16-4.043
	c0-0.82,0.129-1.594,0.387-2.32c0.258-0.727,0.621-1.43,1.09-2.109l4.043-5.625c-0.304-0.866-0.457-1.723-0.457-2.565
	c0-0.82,0.129-1.6,0.387-2.338c0.258-0.738,0.621-1.437,1.09-2.092l12.551-17.578c0.727-1.008,1.623-1.806,2.689-2.392
	c1.067-0.586,2.232-0.879,3.498-0.879s2.426,0.287,3.48,0.861c1.054,0.574,1.946,1.365,2.672,2.373l12.516,17.508
	c0.492,0.68,0.874,1.396,1.143,2.146c0.27,0.75,0.404,1.547,0.404,2.391s-0.152,1.699-0.457,2.565l3.973,5.556
	c0.469,0.656,0.844,1.365,1.125,2.127c0.281,0.762,0.422,1.553,0.422,2.373c0,1.5-0.387,2.848-1.16,4.043l4.781,6.715
	c0.938,1.336,1.406,2.813,1.406,4.43c0,0.82-0.128,1.617-0.387,2.392c-0.258,0.772-0.633,1.487-1.125,2.145
	c0.469,0.609,0.938,1.226,1.406,1.846c0.469,0.621,0.902,1.255,1.301,1.898c0.399,0.646,0.721,1.324,0.967,2.039
	s0.369,1.482,0.369,2.303c0,1.056-0.199,2.039-0.598,2.953c-0.398,0.914-0.937,1.711-1.617,2.392
	c-0.68,0.68-1.477,1.219-2.391,1.616c-0.914,0.398-1.898,0.599-2.953,0.599c-0.867,0-1.67-0.136-2.408-0.404
	s-1.436-0.621-2.092-1.055c-0.656-0.435-1.295-0.908-1.916-1.425c-0.621-0.516-1.248-1.02-1.881-1.512
	c-0.609,1.359-1.541,2.433-2.795,3.217c-1.253,0.785-2.619,1.179-4.096,1.179v7.594H166.4v-7.594c-0.726,0-1.436-0.105-2.127-0.316
	s-1.336-0.504-1.934-0.879c-0.598-0.375-1.137-0.832-1.617-1.371s-0.873-1.147-1.178-1.828c-0.633,0.492-1.26,0.996-1.881,1.513
	c-0.621,0.516-1.26,0.989-1.916,1.424c-0.656,0.434-1.354,0.785-2.092,1.055c-0.738,0.27-1.541,0.404-2.408,0.404
	c-1.055,0-2.039-0.199-2.953-0.599c-0.914-0.398-1.71-0.938-2.391-1.616c-0.68-0.681-1.218-1.478-1.617-2.392
	c-0.398-0.914-0.598-1.897-0.598-2.953c0-0.819,0.129-1.588,0.387-2.303c0.258-0.715,0.586-1.395,0.984-2.039
	c0.399-0.645,0.832-1.271,1.301-1.881c0.469-0.609,0.926-1.23,1.371-1.863C147.241,118.11,146.866,117.395,146.608,116.621z
	 M152.795,128.856l11.074-8.647v6.645c0,0.681,0.252,1.271,0.756,1.775s1.096,0.756,1.775,0.756c0.352,0,0.698-0.076,1.037-0.229
	c0.34-0.151,0.627-0.356,0.861-0.614l8.227-9.246l8.227,9.246c0.492,0.563,1.113,0.844,1.863,0.844c0.703,0,1.301-0.246,1.793-0.738
	c0.492-0.492,0.738-1.09,0.738-1.793v-6.645l11.109,8.647c0.469,0.353,0.984,0.527,1.547,0.527c0.703,0,1.301-0.246,1.793-0.738
	c0.492-0.492,0.738-1.09,0.738-1.793c0-0.539-0.164-1.031-0.492-1.477l-4.359-6.117c-0.585,0-1.166-0.082-1.74-0.246
	c-0.574-0.164-1.095-0.434-1.564-0.809l-12.059-9.388l-2.918,7.277c-0.398,0.984-1.014,1.758-1.846,2.32s-1.775,0.844-2.83,0.844
	c-1.055,0-1.998-0.281-2.83-0.844c-0.832-0.563-1.447-1.336-1.846-2.32l-2.918-7.277l-12.059,9.388
	c-0.469,0.375-0.99,0.645-1.564,0.809c-0.574,0.164-1.154,0.246-1.74,0.246l-4.359,6.117c-0.328,0.444-0.492,0.938-0.492,1.477
	c0,0.703,0.246,1.301,0.738,1.793s1.09,0.738,1.793,0.738C151.834,129.383,152.351,129.207,152.795,128.856z M191.538,85.631
	c-0.093-0.246-0.223-0.486-0.387-0.721l-12.586-17.578c-0.234-0.328-0.533-0.599-0.896-0.81c-0.363-0.211-0.744-0.315-1.143-0.315
	c-0.398,0-0.779,0.104-1.143,0.315c-0.363,0.211-0.662,0.48-0.896,0.81L161.901,84.91c-0.164,0.233-0.293,0.475-0.387,0.721
	c-0.093,0.246-0.141,0.51-0.141,0.791c0,0.539,0.158,1.025,0.475,1.459s0.744,0.731,1.283,0.896l-6.293,8.789
	c-0.164,0.234-0.293,0.47-0.387,0.703c-0.093,0.234-0.141,0.492-0.141,0.773c0,0.516,0.094,0.938,0.281,1.266
	c0.188,0.328,0.439,0.586,0.756,0.773c0.317,0.187,0.68,0.315,1.09,0.387c0.41,0.07,0.826,0.105,1.248,0.105l-7.945,11.18
	c-0.328,0.445-0.492,0.938-0.492,1.477c0,0.703,0.246,1.295,0.738,1.775c0.492,0.479,1.09,0.721,1.793,0.721
	c0.563,0,1.02-0.129,1.371-0.387s0.727-0.551,1.125-0.879l13.746-10.688l4.148,10.371c0.188,0.469,0.498,0.851,0.932,1.144
	s0.909,0.438,1.424,0.438c0.516,0,0.99-0.146,1.424-0.438c0.434-0.293,0.744-0.675,0.932-1.144l4.148-10.371l13.746,10.688
	c0.399,0.328,0.773,0.621,1.125,0.879s0.809,0.387,1.371,0.387c0.703,0,1.301-0.24,1.793-0.721c0.492-0.481,0.738-1.072,0.738-1.775
	c0-0.539-0.164-1.03-0.492-1.477l-7.945-11.18c0.422,0,0.838-0.035,1.248-0.105c0.41-0.07,0.773-0.199,1.09-0.387
	c0.317-0.188,0.568-0.445,0.756-0.773s0.281-0.75,0.281-1.266c0-0.281-0.047-0.539-0.141-0.773
	c-0.093-0.233-0.223-0.469-0.387-0.703l-6.293-8.789c0.54-0.164,0.967-0.463,1.283-0.896s0.475-0.92,0.475-1.459
	C191.678,86.141,191.631,85.877,191.538,85.631z M171.463,136.942h10.125v-8.19l-5.063-5.66l-5.063,5.66L171.463,136.942
	L171.463,136.942z M76.532,109.344c1.828-1.055,3.674-1.77,5.537-2.145c1.863-0.375,3.85-0.563,5.959-0.563
	c0.492-0.68,1.061-1.33,1.705-1.951c0.645-0.621,1.342-1.16,2.092-1.617s1.542-0.819,2.373-1.09c0.832-0.27,1.682-0.403,2.549-0.403
	c1.406,0,2.725,0.264,3.955,0.791c1.23,0.526,2.303,1.247,3.217,2.161s1.635,1.986,2.162,3.218c0.527,1.23,0.791,2.549,0.791,3.955
	c0,0.327,0.006,0.661,0.018,1.002c0.012,0.34,0.018,0.686,0.018,1.037c0,0.491-0.023,0.989-0.07,1.493s-0.152,1.002-0.316,1.494
	h14.379l16.277,9.773v12.973H121.11c-0.914,0.82-1.945,1.447-3.094,1.881c-1.148,0.435-2.343,0.65-3.586,0.65
	c-1.242,0-2.438-0.217-3.586-0.65c-1.148-0.434-2.18-1.061-3.094-1.881H83.211c-0.914,0.82-1.945,1.447-3.094,1.881
	c-1.148,0.435-2.343,0.65-3.586,0.65c-1.242,0-2.438-0.217-3.586-0.65s-2.18-1.061-3.094-1.881h-5.52l-8.016-8.016v-27.353H76.53
	v5.24H76.532z M71.469,111.699v-2.531h-10.09v2.531H71.469z M66.758,129.383c0.329-1.336,0.896-2.537,1.705-3.604
	c0.809-1.066,1.811-1.938,3.006-2.618v-8.966h-10.09v15.188H66.758z M81.19,129.946c-0.269-0.608-0.633-1.143-1.09-1.6
	s-0.99-0.82-1.6-1.09c-0.609-0.271-1.266-0.404-1.969-0.404c-0.703,0-1.359,0.135-1.969,0.404c-0.609,0.27-1.143,0.633-1.6,1.09
	s-0.82,0.99-1.09,1.6c-0.269,0.609-0.404,1.267-0.404,1.97s0.135,1.358,0.404,1.969c0.27,0.609,0.633,1.143,1.09,1.6
	s0.99,0.814,1.6,1.072s1.266,0.387,1.969,0.387c0.703,0,1.359-0.129,1.969-0.387s1.143-0.615,1.6-1.072s0.821-0.989,1.09-1.6
	c0.27-0.609,0.404-1.266,0.404-1.969S81.459,130.555,81.19,129.946z M106.063,126.272c0.61-0.879,1.331-1.646,2.162-2.303
	c0.832-0.656,1.746-1.172,2.742-1.547c0.997-0.375,2.045-0.586,3.146-0.633H94.215c-0.703,0-1.359-0.136-1.969-0.404
	c-0.609-0.27-1.143-0.633-1.6-1.09s-0.82-0.99-1.09-1.601c-0.269-0.608-0.404-1.266-0.404-1.969v-5.026h-2.496
	c-1.71,0-3.352,0.264-4.922,0.791c-1.57,0.526-3,1.276-4.289,2.25c-1.289,0.973-2.402,2.145-3.34,3.516
	c-0.937,1.371-1.64,2.9-2.109,4.588c1.406-0.703,2.918-1.055,4.535-1.055c1.828,0,3.516,0.451,5.063,1.354
	c1.547,0.903,2.777,2.14,3.691,3.709h13.992c1.032,0,2.016,0.199,2.953,0.599c0.938,0.397,1.758,0.973,2.461,1.723
	C104.997,128.117,105.454,127.151,106.063,126.272z M101.405,109.731c-0.269-0.608-0.633-1.143-1.09-1.6s-0.99-0.82-1.6-1.09
	c-0.609-0.271-1.266-0.404-1.969-0.404s-1.359,0.135-1.969,0.404c-0.609,0.27-1.143,0.633-1.6,1.09c-0.457,0.457-0.82,0.99-1.09,1.6
	c-0.269,0.609-0.404,1.267-0.404,1.97v2.495c0,0.703,0.135,1.359,0.404,1.97c0.27,0.608,0.633,1.143,1.09,1.6
	c0.457,0.457,0.99,0.82,1.6,1.09c0.61,0.271,1.266,0.404,1.969,0.404s1.359-0.135,1.969-0.404c0.61-0.27,1.143-0.633,1.6-1.09
	s0.821-0.99,1.09-1.6c0.27-0.609,0.404-1.267,0.404-1.97h-5.063l-2.531-2.495h7.594C101.809,110.996,101.674,110.34,101.405,109.731
	z M119.106,129.946c-0.258-0.608-0.615-1.143-1.072-1.6s-0.996-0.82-1.617-1.09c-0.621-0.271-1.283-0.404-1.986-0.404
	c-0.703,0-1.359,0.135-1.969,0.404c-0.609,0.27-1.143,0.633-1.6,1.09s-0.82,0.99-1.09,1.6c-0.269,0.609-0.404,1.267-0.404,1.97
	c0,0.68,0.135,1.324,0.404,1.934c0.27,0.609,0.639,1.144,1.107,1.601c0.469,0.457,1.008,0.819,1.617,1.09
	c0.61,0.27,1.254,0.403,1.934,0.403c0.703,0,1.359-0.129,1.969-0.387s1.143-0.615,1.6-1.072s0.821-0.989,1.09-1.6
	c0.27-0.609,0.404-1.266,0.404-1.969S119.364,130.555,119.106,129.946z M114.782,121.789c1.125,0.047,2.197,0.264,3.217,0.649
	c1.02,0.387,1.946,0.914,2.777,1.582c0.832,0.668,1.547,1.459,2.145,2.373c0.598,0.914,1.037,1.91,1.318,2.988h7.875l-12.621-7.594
	L114.782,121.789L114.782,121.789z M27.733,107.103h10.763c1.32,0,2.59,0.172,3.81,0.517c1.22,0.344,2.362,0.825,3.427,1.446
	s2.032,1.37,2.903,2.246c0.87,0.877,1.616,1.848,2.237,2.911c0.621,1.065,1.104,2.207,1.447,3.427
	c0.344,1.222,0.516,2.49,0.516,3.811c0,1.319-0.172,2.59-0.516,3.81c-0.344,1.222-0.826,2.362-1.447,3.427
	c-0.621,1.065-1.367,2.032-2.237,2.903c-0.871,0.87-1.839,1.616-2.903,2.236c-1.064,0.622-2.207,1.104-3.427,1.447
	c-1.22,0.345-2.489,0.516-3.81,0.516c-1.108,0-2.209-0.109-3.302-0.332c-1.093-0.222-2.148-0.546-3.169-0.973
	c-1.021-0.429-1.993-0.949-2.92-1.564c-0.926-0.615-1.782-1.315-2.57-2.104v1.381h-4.79c-0.466,0-0.927-0.07-1.381-0.209
	c-0.455-0.14-0.876-0.335-1.265-0.59c-0.388-0.257-0.734-0.562-1.04-0.916c-0.305-0.354-0.546-0.755-0.724-1.197
	c-0.166-0.41-0.269-0.801-0.308-1.172c-0.038-0.372-0.058-0.752-0.058-1.142v-0.748h-2.396v-1.446c0-0.566,0.014-1.125,0.041-1.681
	c0.028-0.555,0.098-1.108,0.208-1.664c0.223-1.164,0.615-2.26,1.182-3.284c0.565-1.025,1.256-1.947,2.07-2.763
	c0.815-0.813,1.739-1.506,2.771-2.07c1.032-0.565,2.123-0.966,3.276-1.198c0.521-0.109,1.046-0.177,1.572-0.199
	c0.527-0.021,1.057-0.033,1.589-0.033h0.799c-0.145-0.632-0.238-1.258-0.283-1.879c-0.044-0.621-0.066-1.248-0.066-1.881
	L27.733,107.103L27.733,107.103z M38.646,109.499h-8.533c0,0.965,0.214,1.835,0.641,2.61c0.427,0.775,0.989,1.48,1.688,2.112
	l0.066,0.05h-5.973c-0.354,0-0.709,0.022-1.064,0.066c-0.354,0.045-0.709,0.104-1.064,0.184c-1.087,0.232-2.085,0.644-2.994,1.23
	c-0.909,0.587-1.694,1.298-2.354,2.129c-0.659,0.832-1.172,1.758-1.538,2.779c-0.366,1.02-0.549,2.077-0.549,3.177h0.166
	c0.888,0,1.788,0.095,2.703,0.282c0.915,0.188,1.805,0.464,2.67,0.823c0.865,0.36,1.688,0.795,2.471,1.307
	c0.781,0.511,1.483,1.081,2.104,1.714c0.255,0.255,0.502,0.513,0.74,0.772c0.238,0.261,0.49,0.514,0.757,0.757
	c0.665,0.588,1.375,1.123,2.129,1.604c0.754,0.482,1.545,0.896,2.37,1.24c0.827,0.344,1.675,0.606,2.546,0.789
	c0.87,0.184,1.755,0.274,2.653,0.274c1.985,0,3.813-0.398,5.481-1.196c1.669-0.8,3.102-1.991,4.3-3.577h-3.593
	c-0.677,0-1.259-0.089-1.747-0.268c-0.488-0.177-0.929-0.397-1.322-0.665c-0.393-0.267-0.766-0.555-1.115-0.864
	c-0.349-0.311-0.721-0.6-1.114-0.864c-0.394-0.267-0.834-0.488-1.322-0.666c-0.488-0.178-1.07-0.266-1.747-0.266
	c0-0.987,0.188-1.916,0.565-2.787c0.378-0.87,0.891-1.63,1.539-2.279c0.648-0.648,1.408-1.161,2.279-1.538
	c0.87-0.377,1.799-0.564,2.786-0.564c-0.41-0.511-0.713-1.076-0.906-1.697c-0.194-0.621-0.291-1.253-0.291-1.896h5.988
	c-0.544-0.731-1.167-1.392-1.871-1.979s-1.464-1.089-2.279-1.505s-1.666-0.734-2.554-0.957
	C40.471,109.61,39.566,109.499,38.646,109.499z M21.745,129.827h2.395c0-0.334-0.063-0.645-0.19-0.933
	c-0.128-0.289-0.3-0.541-0.516-0.758c-0.217-0.216-0.469-0.388-0.758-0.516c-0.288-0.127-0.599-0.191-0.931-0.191h-2.379v0.25
	c0,0.289,0.072,0.563,0.216,0.823c0.145,0.261,0.33,0.488,0.558,0.683c0.228,0.193,0.482,0.35,0.765,0.465
	C21.188,129.769,21.468,129.827,21.745,129.827z M44.469,121.459c0,0.499,0.094,0.965,0.282,1.396
	c0.188,0.433,0.446,0.811,0.773,1.131c0.327,0.322,0.707,0.577,1.14,0.767c0.433,0.188,0.898,0.283,1.397,0.283h1.83
	c0.365-1.165,0.549-2.363,0.549-3.595c0-1.23-0.184-2.423-0.549-3.575h-3.028l1.198,3.593H44.469z"/>
</svg>
